solid jarvis_fit_check
  facet normal 0.000000 0.000000 -1.000000
    outer loop
      vertex 0.000000 0.000000 0.000000
      vertex 54.000000 82.000000 0.000000
      vertex 54.000000 0.000000 0.000000
    endloop
  endfacet
  facet normal 0.000000 0.000000 -1.000000
    outer loop
      vertex 0.000000 0.000000 0.000000
      vertex 0.000000 82.000000 0.000000
      vertex 54.000000 82.000000 0.000000
    endloop
  endfacet
  facet normal 0.000000 0.000000 1.000000
    outer loop
      vertex 0.000000 0.000000 145.000000
      vertex 54.000000 0.000000 145.000000
      vertex 54.000000 82.000000 145.000000
    endloop
  endfacet
  facet normal 0.000000 0.000000 1.000000
    outer loop
      vertex 0.000000 0.000000 145.000000
      vertex 54.000000 82.000000 145.000000
      vertex 0.000000 82.000000 145.000000
    endloop
  endfacet
  facet normal 0.000000 -1.000000 0.000000
    outer loop
      vertex 0.000000 0.000000 0.000000
      vertex 54.000000 0.000000 0.000000
      vertex 54.000000 0.000000 145.000000
    endloop
  endfacet
  facet normal 0.000000 -1.000000 0.000000
    outer loop
      vertex 0.000000 0.000000 0.000000
      vertex 54.000000 0.000000 145.000000
      vertex 0.000000 0.000000 145.000000
    endloop
  endfacet
  facet normal 1.000000 0.000000 0.000000
    outer loop
      vertex 54.000000 0.000000 0.000000
      vertex 54.000000 82.000000 0.000000
      vertex 54.000000 82.000000 145.000000
    endloop
  endfacet
  facet normal 1.000000 0.000000 0.000000
    outer loop
      vertex 54.000000 0.000000 0.000000
      vertex 54.000000 82.000000 145.000000
      vertex 54.000000 0.000000 145.000000
    endloop
  endfacet
  facet normal 0.000000 1.000000 0.000000
    outer loop
      vertex 54.000000 82.000000 0.000000
      vertex 0.000000 82.000000 0.000000
      vertex 0.000000 82.000000 145.000000
    endloop
  endfacet
  facet normal 0.000000 1.000000 -0.000000
    outer loop
      vertex 54.000000 82.000000 0.000000
      vertex 0.000000 82.000000 145.000000
      vertex 54.000000 82.000000 145.000000
    endloop
  endfacet
  facet normal -1.000000 0.000000 0.000000
    outer loop
      vertex 0.000000 82.000000 0.000000
      vertex 0.000000 0.000000 0.000000
      vertex 0.000000 0.000000 145.000000
    endloop
  endfacet
  facet normal -1.000000 0.000000 0.000000
    outer loop
      vertex 0.000000 82.000000 0.000000
      vertex 0.000000 0.000000 145.000000
      vertex 0.000000 82.000000 145.000000
    endloop
  endfacet
endsolid jarvis_fit_check
